<?xml version="1.0" standalone="no"?>
<!DOCTYPE svg PUBLIC "-//W3C//DTD SVG 20010904//EN"
 "http://www.w3.org/TR/2001/REC-SVG-20010904/DTD/svg10.dtd">
<svg version="1.0" xmlns="http://www.w3.org/2000/svg"
 width="512.000000pt" height="512.000000pt" viewBox="0 0 512.000000 512.000000"
 preserveAspectRatio="xMidYMid meet">
<metadata>
Created by potrace 1.11, written by Peter Selinger 2001-2013
</metadata>
<g transform="translate(0.000000,512.000000) scale(0.100000,-0.100000)"
fill="#000000" stroke="none">
<path d="M929 4887 c-119 -41 -199 -112 -253 -226 l-31 -66 0 -2035 0 -2035
31 -66 c55 -116 142 -192 262 -229 63 -20 99 -20 1622 -20 1523 0 1559 0 1622
20 120 37 207 113 262 229 l31 66 0 2036 0 2035 -38 76 c-56 115 -150 192
-272 224 -41 11 -340 14 -1610 14 l-1560 -1 -66 -22z"/>
</g>
</svg>
